<svg id="Grupo_87" data-name="Grupo 87" xmlns="http://www.w3.org/2000/svg" width="328.987" height="454.477" viewBox="0 0 328.987 454.477">
  <g id="Grupo_58" data-name="Grupo 58" transform="translate(0 125.483)">
    <path id="Trazado_37" data-name="Trazado 37" d="M351.137,202.744a13.029,13.029,0,0,1-6.339-24.419,25.922,25.922,0,1,0-25.869-.449A13.036,13.036,0,1,1,305.5,200.225a51.981,51.981,0,1,1,51.949.878A12.941,12.941,0,0,1,351.137,202.744Z" transform="translate(-167.747 8.857)" fill="rgba(0,0,0,0.04)"/>
    <path id="Trazado_38" data-name="Trazado 38" d="M377.292,305.471A104.711,104.711,0,1,1,474.6,239.617a13.03,13.03,0,1,1-24.194-9.683A78.7,78.7,0,1,0,410.7,271.982a13.035,13.035,0,1,1,11.086,23.595A103.825,103.825,0,0,1,377.292,305.471Z" transform="translate(-212.798 -36.195)" fill="rgba(0,0,0,0.04)"/>
    <path id="Trazado_39" data-name="Trazado 39" d="M428.235,416.131c-72.3,0-137.153-48.367-157.711-117.611a164.663,164.663,0,0,1-6.782-46.889,13.033,13.033,0,1,1,26.066,0,138.647,138.647,0,0,0,5.7,39.467c17.3,58.268,71.88,98.967,132.728,98.967,76.326,0,138.428-62.1,138.428-138.434S504.561,113.2,428.235,113.2a13.033,13.033,0,0,1,0-26.066c90.708,0,164.494,73.793,164.494,164.494S518.942,416.131,428.235,416.131Z" transform="translate(-263.741 -87.137)" fill="rgba(0,0,0,0.04)"/>
  </g>
  <g id="Grupo_62" data-name="Grupo 62" transform="translate(12.769)">
    <g id="Grupo_59" data-name="Grupo 59" transform="translate(143.39)">
      <path id="Trazado_40" data-name="Trazado 40" d="M297.011,148.617a10.331,10.331,0,0,1-10.337-10.337V79.039a10.337,10.337,0,0,1,20.674,0V138.28A10.332,10.332,0,0,1,297.011,148.617Z" transform="translate(-286.674 -68.709)" fill="rgba(0,0,0,0.04)"/>
    </g>
    <g id="Grupo_60" data-name="Grupo 60" transform="translate(249.42 59.236)">
      <path id="Trazado_41" data-name="Trazado 41" d="M312.58,135.722a10.34,10.34,0,0,1-7.307-17.65L342.9,80.437A10.336,10.336,0,1,1,357.523,95.05l-37.629,37.642A10.334,10.334,0,0,1,312.58,135.722Z" transform="translate(-302.245 -77.408)" fill="rgba(0,0,0,0.04)"/>
    </g>
    <g id="Grupo_61" data-name="Grupo 61" transform="translate(0 57.52)">
      <path id="Trazado_42" data-name="Trazado 42" d="M313.321,135.2a10.328,10.328,0,0,1-7.313-3.03L268.645,94.8a10.333,10.333,0,1,1,14.613-14.613l37.37,37.363a10.34,10.34,0,0,1-7.307,17.649Z" transform="translate(-265.616 -77.156)" fill="rgba(0,0,0,0.04)"/>
    </g>
  </g>
</svg>
