<svg xmlns="http://www.w3.org/2000/svg" width="59.465" height="82.147" viewBox="0 0 59.465 82.147"><g transform="translate(0 22.681)"><path d="M293.075,121.57a2.355,2.355,0,0,1-1.146-4.414,4.685,4.685,0,1,0-4.676-.081,2.356,2.356,0,1,1-2.427,4.039,9.4,9.4,0,1,1,9.39.159A2.339,2.339,0,0,1,293.075,121.57Z" transform="translate(-259.927 -83.323)" fill="#fff"/><path d="M291.45,133.785a18.927,18.927,0,1,1,17.588-11.9,2.355,2.355,0,1,1-4.373-1.75,14.225,14.225,0,1,0-7.177,7.6,2.356,2.356,0,1,1,2,4.265A18.767,18.767,0,0,1,291.45,133.785Z" transform="translate(-261.717 -85.113)" fill="#fff"/><path d="M293.473,146.6a29.7,29.7,0,0,1-29.732-29.734,2.356,2.356,0,1,1,4.711,0,25.021,25.021,0,1,0,25.021-25.021,2.356,2.356,0,0,1,0-4.711,29.733,29.733,0,0,1,0,59.466Z" transform="translate(-263.741 -87.137)" fill="#fff"/></g><g transform="translate(2.308)"><g transform="translate(25.918)"><path d="M288.542,83.152a1.867,1.867,0,0,1-1.868-1.868V70.576a1.868,1.868,0,0,1,3.737,0V81.284A1.867,1.867,0,0,1,288.542,83.152Z" transform="translate(-286.674 -68.709)" fill="#fff"/></g><g transform="translate(45.083 10.707)"><path d="M304.113,87.949a1.869,1.869,0,0,1-1.321-3.19l6.8-6.8a1.868,1.868,0,0,1,2.643,2.641l-6.8,6.8A1.868,1.868,0,0,1,304.113,87.949Z" transform="translate(-302.245 -77.408)" fill="#fff"/></g><g transform="translate(0 10.397)"><path d="M274.239,87.647a1.867,1.867,0,0,1-1.322-.548l-6.753-6.755a1.868,1.868,0,1,1,2.641-2.641l6.755,6.753a1.869,1.869,0,0,1-1.321,3.19Z" transform="translate(-265.616 -77.156)" fill="#fff"/></g></g></svg>