<svg xmlns="http://www.w3.org/2000/svg" width="35" height="35" viewBox="0 0 35 35"><g transform="translate(-1127 -4144)"><circle cx="17.5" cy="17.5" r="17.5" transform="translate(1127 4144)" fill="#fff"/><path d="M4.117,18.4H.3V6.123H4.117ZM2.208,4.448A2.219,2.219,0,1,1,4.417,2.218,2.227,2.227,0,0,1,2.208,4.448ZM18.39,18.4H14.584V12.425c0-1.425-.029-3.252-1.983-3.252-1.983,0-2.286,1.548-2.286,3.149V18.4H6.506V6.123h3.657V7.8h.053a4.007,4.007,0,0,1,3.608-1.983c3.859,0,4.569,2.541,4.569,5.842V18.4Z" transform="translate(1135.544 4150.99)" fill="#005fab"/></g></svg>