<svg xmlns="http://www.w3.org/2000/svg" width="196.161" height="56.03" viewBox="0 0 196.161 56.03"><g transform="translate(-87 -115)"><g transform="translate(87 115)"><path d="M110.78,88.882V111.14h-2.823v-3.826a12.277,12.277,0,0,1-4.04,3.294,11.287,11.287,0,0,1-12.971-2.322A11.491,11.491,0,0,1,87.6,99.95a11.281,11.281,0,0,1,3.375-8.224A11.008,11.008,0,0,1,99.1,88.309a10.5,10.5,0,0,1,4.96,1.166,11.288,11.288,0,0,1,3.9,3.5V88.882ZM99.334,91.071A8.637,8.637,0,0,0,91.7,95.546a9.016,9.016,0,0,0,.011,8.99,8.777,8.777,0,0,0,3.238,3.341,8.461,8.461,0,0,0,4.363,1.2,8.939,8.939,0,0,0,4.455-1.186,8.3,8.3,0,0,0,3.238-3.207,9.154,9.154,0,0,0,1.134-4.557,8.86,8.86,0,0,0-2.544-6.458A8.428,8.428,0,0,0,99.334,91.071Z" transform="translate(-87.602 -78.252)" fill="#fff"/><path d="M144.615,89.425h2.864V99.818a22.182,22.182,0,0,0,.41,5.237,5.839,5.839,0,0,0,2.346,3.233,7.121,7.121,0,0,0,4.129,1.187,6.97,6.97,0,0,0,4.067-1.156,5.914,5.914,0,0,0,2.3-3.038,21.457,21.457,0,0,0,.43-5.462V89.425h2.926V100.35a17.269,17.269,0,0,1-1.074,6.935,8.2,8.2,0,0,1-3.232,3.652,10.213,10.213,0,0,1-5.411,1.32,10.321,10.321,0,0,1-5.431-1.32,8.14,8.14,0,0,1-3.253-3.682,17.994,17.994,0,0,1-1.074-7.109Z" transform="translate(-115.361 -78.795)" fill="#fff"/><path d="M187.97,88.882h2.864v3.989a11.973,11.973,0,0,1,3.805-3.427,9.352,9.352,0,0,1,4.542-1.136,7.891,7.891,0,0,1,4.429,1.268,7.557,7.557,0,0,1,2.854,3.416,18.07,18.07,0,0,1,.921,6.69V111.14H204.52V100.522a26.162,26.162,0,0,0-.319-5.135,5.642,5.642,0,0,0-1.909-3.324,5.769,5.769,0,0,0-3.683-1.115,7.066,7.066,0,0,0-4.655,1.718,8.05,8.05,0,0,0-2.711,4.255,29.574,29.574,0,0,0-.409,6.055v8.163H187.97Z" transform="translate(-136.47 -78.252)" fill="#fff"/><g transform="translate(90.379)"><g transform="translate(0 9.456)"><path d="M285.605,111.127a.982.982,0,0,1-.478-1.84,1.953,1.953,0,1,0-1.949-.034.982.982,0,1,1-1.012,1.684,3.917,3.917,0,1,1,3.915.066A.975.975,0,0,1,285.605,111.127Z" transform="translate(-271.786 -95.182)" fill="#fff"/><path d="M280.406,111.7a7.89,7.89,0,1,1,7.332-4.962.982.982,0,1,1-1.823-.73,5.93,5.93,0,1,0-2.992,3.168.982.982,0,1,1,.835,1.778A7.824,7.824,0,0,1,280.406,111.7Z" transform="translate(-268.011 -91.407)" fill="#fff"/><path d="M276.136,111.928a12.384,12.384,0,0,1-12.4-12.4.982.982,0,0,1,1.964,0A10.431,10.431,0,1,0,276.136,89.1a.982.982,0,1,1,0-1.964,12.4,12.4,0,0,1,0,24.791Z" transform="translate(-263.741 -87.137)" fill="#fff"/></g><g transform="translate(0.962)"><g transform="translate(10.805)"><path d="M287.453,74.73a.778.778,0,0,1-.779-.779V69.487a.779.779,0,0,1,1.558,0v4.464A.779.779,0,0,1,287.453,74.73Z" transform="translate(-286.674 -68.709)" fill="#fff"/></g><g transform="translate(18.795 4.464)"><path d="M303.024,81.8a.779.779,0,0,1-.551-1.33l2.835-2.836a.779.779,0,0,1,1.1,1.1l-2.835,2.837A.779.779,0,0,1,303.024,81.8Z" transform="translate(-302.245 -77.408)" fill="#fff"/></g><g transform="translate(0 4.334)"><path d="M269.211,81.53a.778.778,0,0,1-.551-.228l-2.815-2.816a.779.779,0,1,1,1.1-1.1l2.816,2.815a.779.779,0,0,1-.551,1.33Z" transform="translate(-265.616 -77.156)" fill="#fff"/></g></g></g><path d="M241.923,73.318h2.864v8.265h4.542v2.476h-4.542v19.782h-2.864V84.059h-3.907V81.583h3.907Z" transform="translate(-160.836 -70.953)" fill="#fff"/><path d="M343.085,88.882v30.4h-2.823V107.314a12.266,12.266,0,0,1-4.04,3.294,11.287,11.287,0,0,1-12.97-2.322,11.489,11.489,0,0,1-3.345-8.337,11.28,11.28,0,0,1,3.376-8.224,11.008,11.008,0,0,1,8.122-3.416,10.5,10.5,0,0,1,4.961,1.166,11.285,11.285,0,0,1,3.9,3.5V88.882ZM331.64,91.071a8.637,8.637,0,0,0-7.633,4.475,9.018,9.018,0,0,0,.01,8.99,8.783,8.783,0,0,0,3.239,3.341,8.459,8.459,0,0,0,4.363,1.2,8.937,8.937,0,0,0,4.454-1.186,8.292,8.292,0,0,0,3.239-3.207,9.16,9.16,0,0,0,1.134-4.557,8.858,8.858,0,0,0-2.544-6.458A8.427,8.427,0,0,0,331.64,91.071Z" transform="translate(-200.708 -78.252)" fill="#fff"/><path d="M376.881,89.425h2.864V99.818a22.156,22.156,0,0,0,.41,5.237,5.836,5.836,0,0,0,2.346,3.233,7.12,7.12,0,0,0,4.128,1.187,6.97,6.97,0,0,0,4.067-1.156A5.915,5.915,0,0,0,393,105.28a21.482,21.482,0,0,0,.43-5.462V89.425h2.925V100.35a17.279,17.279,0,0,1-1.074,6.935,8.2,8.2,0,0,1-3.232,3.652,10.216,10.216,0,0,1-5.411,1.32,10.323,10.323,0,0,1-5.431-1.32,8.136,8.136,0,0,1-3.253-3.682,17.984,17.984,0,0,1-1.074-7.109Z" transform="translate(-228.448 -78.795)" fill="#fff"/><path d="M444.947,103.755l2.414,1.268a13.158,13.158,0,0,1-2.744,3.764,10.888,10.888,0,0,1-3.5,2.179,12.232,12.232,0,0,1-4.4.747,10.638,10.638,0,0,1-8.518-3.57,12.042,12.042,0,0,1-3.072-8.071,11.9,11.9,0,0,1,2.6-7.549,10.631,10.631,0,0,1,8.825-4.214,10.98,10.98,0,0,1,9.091,4.317,12.051,12.051,0,0,1,2.457,7.61H428.069a9.062,9.062,0,0,0,2.478,6.358,7.9,7.9,0,0,0,5.919,2.48,9.509,9.509,0,0,0,3.308-.591,8.7,8.7,0,0,0,2.735-1.569A13.379,13.379,0,0,0,444.947,103.755Zm0-5.994a9.513,9.513,0,0,0-1.67-3.662,7.911,7.911,0,0,0-2.9-2.209,8.883,8.883,0,0,0-3.789-.838,8.16,8.16,0,0,0-5.632,2.107,9.521,9.521,0,0,0-2.6,4.6Z" transform="translate(-251.936 -78.252)" fill="#fff"/><g transform="translate(2.92 40.159)"><path d="M100.74,154.56h1.049v6.8a8.384,8.384,0,0,1-.3,2.627,3.385,3.385,0,0,1-1.431,1.811,4.542,4.542,0,0,1-2.45.635,5.384,5.384,0,0,1-1.885-.31,3.735,3.735,0,0,1-1.36-.834,4.99,4.99,0,0,1-.966-1.53h1.139a3.079,3.079,0,0,0,1.2,1.255,3.723,3.723,0,0,0,1.823.408A3.634,3.634,0,0,0,99.371,165a2.508,2.508,0,0,0,1.054-1.051,4.883,4.883,0,0,0,.315-2.044v-.439a4.014,4.014,0,0,1-1.448,1.2,4.172,4.172,0,0,1-5.461-1.737,4.459,4.459,0,0,1-.54-2.172,4.51,4.51,0,0,1,.562-2.208,4.235,4.235,0,0,1,1.556-1.619,4.018,4.018,0,0,1,2.1-.6,3.764,3.764,0,0,1,1.707.4,4.757,4.757,0,0,1,1.527,1.305Zm-3.1.839a3.234,3.234,0,0,0-2.855,1.7,3.538,3.538,0,0,0-.434,1.722,3.179,3.179,0,0,0,.9,2.321,3.425,3.425,0,0,0,4.657.008,3.294,3.294,0,0,0,.881-2.392,3.6,3.6,0,0,0-.4-1.721,3.025,3.025,0,0,0-1.147-1.2A3.083,3.083,0,0,0,97.645,155.4Z" transform="translate(-93.292 -150.56)" fill="#fff"/><path d="M120.72,160.261l.884.486a5.037,5.037,0,0,1-1.005,1.443,3.958,3.958,0,0,1-1.282.835,4.3,4.3,0,0,1-1.613.286,3.815,3.815,0,0,1-3.12-1.368,4.842,4.842,0,0,1-.173-5.987,3.834,3.834,0,0,1,3.233-1.615,3.958,3.958,0,0,1,3.33,1.655,4.764,4.764,0,0,1,.9,2.917h-7.336a3.562,3.562,0,0,0,.908,2.437,2.833,2.833,0,0,0,2.168.951,3.34,3.34,0,0,0,1.211-.227,3.151,3.151,0,0,0,1-.6A5.093,5.093,0,0,0,120.72,160.261Zm0-2.3a3.721,3.721,0,0,0-.612-1.4,2.918,2.918,0,0,0-1.062-.847,3.129,3.129,0,0,0-1.388-.322,2.913,2.913,0,0,0-2.063.808,3.693,3.693,0,0,0-.953,1.765Z" transform="translate(-103.111 -150.56)" fill="#fff"/><path d="M137.037,155.493l-.674.729a2.386,2.386,0,0,0-1.646-.855,1.212,1.212,0,0,0-.875.353,1.113,1.113,0,0,0-.364.824,1.249,1.249,0,0,0,.3.792,4.217,4.217,0,0,0,1.261.9,4.739,4.739,0,0,1,1.592,1.223,2.3,2.3,0,0,1,.413,1.341,2.464,2.464,0,0,1-.706,1.781,2.352,2.352,0,0,1-1.763.729,3.028,3.028,0,0,1-2.41-1.207l.66-.784a2.262,2.262,0,0,0,1.7.949,1.5,1.5,0,0,0,1.074-.423,1.336,1.336,0,0,0,.443-1,1.311,1.311,0,0,0-.292-.839,4.716,4.716,0,0,0-1.322-.91,4.251,4.251,0,0,1-1.5-1.176,2.286,2.286,0,0,1-.4-1.325,2.208,2.208,0,0,1,.634-1.615,2.157,2.157,0,0,1,1.6-.643A3.263,3.263,0,0,1,137.037,155.493Z" transform="translate(-112.219 -150.56)" fill="#fff"/><path d="M145.7,148.594h1.049v3.168h1.664v.949h-1.664v7.583H145.7v-7.583h-1.431v-.949H145.7Z" transform="translate(-118.113 -147.763)" fill="#fff"/><path d="M155.309,147.921a.813.813,0,0,1,.612.267.93.93,0,0,1,0,1.278.827.827,0,0,1-1.216,0,.932.932,0,0,1,0-1.278A.806.806,0,0,1,155.309,147.921Zm-.521,3.513h1.049v8.532h-1.049Z" transform="translate(-123.069 -147.435)" fill="#fff"/><path d="M164.885,150.754a3.96,3.96,0,0,1,3.123,1.427,4.739,4.739,0,0,1-.064,6.207,4.177,4.177,0,0,1-6.126,0,4.729,4.729,0,0,1-.064-6.2A3.958,3.958,0,0,1,164.885,150.754Zm0,1.074a2.964,2.964,0,0,0-2.248,1.011,3.467,3.467,0,0,0-.94,2.447,3.593,3.593,0,0,0,.429,1.725,3.117,3.117,0,0,0,1.158,1.236,3.167,3.167,0,0,0,3.2,0,3.114,3.114,0,0,0,1.158-1.236,3.588,3.588,0,0,0,.429-1.725,3.457,3.457,0,0,0-.944-2.447A2.968,2.968,0,0,0,164.881,151.828Zm.521-4.854h1.611l-2.21,2.415h-1.034Z" transform="translate(-126.077 -146.974)" fill="#fff"/><path d="M180.986,154.56h1.049v1.529a4.458,4.458,0,0,1,1.394-1.313,3.3,3.3,0,0,1,1.663-.436,2.8,2.8,0,0,1,1.622.486,2.868,2.868,0,0,1,1.045,1.309,7.22,7.22,0,0,1,.337,2.564v4.392h-1.049v-4.07a10.466,10.466,0,0,0-.117-1.968,2.184,2.184,0,0,0-.7-1.274,2.045,2.045,0,0,0-1.348-.427,2.519,2.519,0,0,0-1.706.659,3.106,3.106,0,0,0-.993,1.631,11.842,11.842,0,0,0-.15,2.321v3.129h-1.049Z" transform="translate(-135.989 -150.56)" fill="#fff"/><path d="M205.814,151.434h1.064v9.819a2.613,2.613,0,0,1-.371,1.564,1.2,1.2,0,0,1-1.015.49,3.28,3.28,0,0,1-1.2-.266v-.988a1.623,1.623,0,0,0,.757.227.687.687,0,0,0,.637-.368,2.413,2.413,0,0,0,.127-.98Zm.517-3.513a.807.807,0,0,1,.611.267.939.939,0,0,1,0,1.278.833.833,0,0,1-1.221,0,.937.937,0,0,1,0-1.278A.807.807,0,0,1,206.331,147.921Z" transform="translate(-147.337 -147.435)" fill="#fff"/><path d="M213.318,154.768h1.049v3.983a8.889,8.889,0,0,0,.15,2.008,2.238,2.238,0,0,0,.859,1.239,2.527,2.527,0,0,0,1.512.455,2.475,2.475,0,0,0,1.49-.443,2.259,2.259,0,0,0,.844-1.165,8.587,8.587,0,0,0,.158-2.094v-3.983h1.072v4.188a6.9,6.9,0,0,1-.394,2.658,3.1,3.1,0,0,1-1.184,1.4,3.609,3.609,0,0,1-1.982.505,3.648,3.648,0,0,1-1.989-.505,3.081,3.081,0,0,1-1.192-1.412,7.2,7.2,0,0,1-.393-2.725Z" transform="translate(-151.731 -150.769)" fill="#fff"/><path d="M239.566,148.35v11.825h-1.034v-1.466a4.543,4.543,0,0,1-1.48,1.262,3.855,3.855,0,0,1-1.794.423,3.9,3.9,0,0,1-2.957-1.313,4.514,4.514,0,0,1-1.225-3.2,4.428,4.428,0,0,1,1.236-3.152,3.946,3.946,0,0,1,2.975-1.31,3.712,3.712,0,0,1,1.817.447,4.208,4.208,0,0,1,1.427,1.341V148.35Zm-4.193,4.133a3.055,3.055,0,0,0-1.617.45,3.242,3.242,0,0,0-1.179,1.265,3.6,3.6,0,0,0,0,3.447,3.3,3.3,0,0,0,1.186,1.281,2.993,2.993,0,0,0,1.6.458,3.164,3.164,0,0,0,1.632-.454,3.114,3.114,0,0,0,1.186-1.229,3.641,3.641,0,0,0,.416-1.747,3.481,3.481,0,0,0-.932-2.475A3.019,3.019,0,0,0,235.373,152.483Z" transform="translate(-160.377 -147.644)" fill="#fff"/><path d="M252.145,147.921a.813.813,0,0,1,.612.267.93.93,0,0,1,0,1.278.827.827,0,0,1-1.216,0,.932.932,0,0,1,0-1.278A.806.806,0,0,1,252.145,147.921Zm-.521,3.513h1.049v8.532h-1.049Z" transform="translate(-170.217 -147.435)" fill="#fff"/><path d="M265.788,156.332l-.831.541a3.432,3.432,0,0,0-2.942-1.5,3.393,3.393,0,0,0-3.458,3.438,3.586,3.586,0,0,0,.453,1.755,3.255,3.255,0,0,0,1.243,1.277,3.484,3.484,0,0,0,1.77.454,3.527,3.527,0,0,0,2.935-1.5l.831.573a3.99,3.99,0,0,1-1.57,1.429,4.833,4.833,0,0,1-2.244.507,4.328,4.328,0,0,1-3.207-1.285,4.281,4.281,0,0,1-1.274-3.129,4.629,4.629,0,0,1,.6-2.3,4.3,4.3,0,0,1,1.637-1.658,4.609,4.609,0,0,1,2.331-.6,4.766,4.766,0,0,1,1.562.259,4.268,4.268,0,0,1,1.277.674A3.619,3.619,0,0,1,265.788,156.332Z" transform="translate(-173.239 -150.56)" fill="#fff"/><path d="M277.482,147.921a.813.813,0,0,1,.612.267.93.93,0,0,1,0,1.278.827.827,0,0,1-1.216,0,.932.932,0,0,1,0-1.278A.806.806,0,0,1,277.482,147.921Zm-.521,3.513h1.049v8.532h-1.049Z" transform="translate(-182.554 -147.435)" fill="#fff"/><path d="M291.349,154.56v8.532h-1.034v-1.466a4.543,4.543,0,0,1-1.48,1.262,4,4,0,0,1-4.751-.89,4.513,4.513,0,0,1-1.225-3.2,4.428,4.428,0,0,1,1.237-3.152,3.944,3.944,0,0,1,2.975-1.31,3.714,3.714,0,0,1,1.817.447,4.213,4.213,0,0,1,1.427,1.341V154.56Zm-4.193.839a3.054,3.054,0,0,0-1.616.45,3.242,3.242,0,0,0-1.179,1.265,3.6,3.6,0,0,0,0,3.447,3.309,3.309,0,0,0,1.186,1.281,2.994,2.994,0,0,0,1.6.458,3.166,3.166,0,0,0,1.632-.454,3.118,3.118,0,0,0,1.186-1.229,3.646,3.646,0,0,0,.415-1.747,3.481,3.481,0,0,0-.932-2.475A3.02,3.02,0,0,0,287.156,155.4Z" transform="translate(-185.589 -150.56)" fill="#fff"/><path d="M303.7,148.35h1.049v11.825H303.7Z" transform="translate(-195.736 -147.644)" fill="#fff"/><path d="M326.047,154.56v8.532h-1.034v-1.466a4.543,4.543,0,0,1-1.48,1.262,3.855,3.855,0,0,1-1.794.423A3.9,3.9,0,0,1,318.783,162a4.512,4.512,0,0,1-1.225-3.2,4.428,4.428,0,0,1,1.236-3.152,3.946,3.946,0,0,1,2.975-1.31,3.714,3.714,0,0,1,1.817.447,4.209,4.209,0,0,1,1.428,1.341V154.56Zm-4.192.839a3.056,3.056,0,0,0-1.617.45,3.242,3.242,0,0,0-1.179,1.265,3.6,3.6,0,0,0,0,3.447,3.3,3.3,0,0,0,1.186,1.281,2.992,2.992,0,0,0,1.6.458,3.165,3.165,0,0,0,1.632-.454,3.115,3.115,0,0,0,1.186-1.229,3.641,3.641,0,0,0,.416-1.747,3.481,3.481,0,0,0-.932-2.475A3.019,3.019,0,0,0,321.855,155.4Z" transform="translate(-202.484 -150.56)" fill="#fff"/><path d="M346.677,148.35h1.049v11.825h-1.049Z" transform="translate(-216.661 -147.644)" fill="#fff"/><path d="M360.745,154.56v8.532h-1.034v-1.466a4.542,4.542,0,0,1-1.48,1.262,4,4,0,0,1-4.751-.89,4.513,4.513,0,0,1-1.225-3.2,4.429,4.429,0,0,1,1.237-3.152,3.945,3.945,0,0,1,2.975-1.31,3.714,3.714,0,0,1,1.817.447,4.212,4.212,0,0,1,1.427,1.341V154.56Zm-4.193.839a3.054,3.054,0,0,0-1.616.45,3.242,3.242,0,0,0-1.179,1.265,3.6,3.6,0,0,0,0,3.447,3.308,3.308,0,0,0,1.186,1.281,2.994,2.994,0,0,0,1.6.458,3.166,3.166,0,0,0,1.632-.454,3.119,3.119,0,0,0,1.186-1.229,3.647,3.647,0,0,0,.415-1.747,3.481,3.481,0,0,0-.932-2.475A3.02,3.02,0,0,0,356.552,155.4Z" transform="translate(-219.377 -150.56)" fill="#fff"/><path d="M381.667,154.56h1.049v1.475a4.166,4.166,0,0,1,1.125-1.192,3.083,3.083,0,0,1,1.673-.5,2.675,2.675,0,0,1,1.125.243,2.428,2.428,0,0,1,.871.647,3.536,3.536,0,0,1,.585,1.157,3.991,3.991,0,0,1,1.308-1.525,2.994,2.994,0,0,1,1.689-.522,2.561,2.561,0,0,1,1.492.447,2.646,2.646,0,0,1,.961,1.247,6.934,6.934,0,0,1,.314,2.4v4.658h-1.072v-4.658a6.373,6.373,0,0,0-.186-1.886,1.689,1.689,0,0,0-.639-.828,1.843,1.843,0,0,0-1.079-.314,2.279,2.279,0,0,0-1.393.471,2.693,2.693,0,0,0-.922,1.254,8.293,8.293,0,0,0-.291,2.619v3.341h-1.049v-4.368a7.849,7.849,0,0,0-.183-2.1,1.749,1.749,0,0,0-.641-.886,1.79,1.79,0,0,0-1.086-.334,2.275,2.275,0,0,0-1.36.459,2.692,2.692,0,0,0-.937,1.235,6.95,6.95,0,0,0-.3,2.376v3.615h-1.049Z" transform="translate(-233.698 -150.56)" fill="#fff"/><path d="M417.509,154.56v8.532h-1.034v-1.466a4.544,4.544,0,0,1-1.48,1.262,3.856,3.856,0,0,1-1.794.423A3.9,3.9,0,0,1,410.244,162a4.512,4.512,0,0,1-1.225-3.2,4.426,4.426,0,0,1,1.237-3.152,3.944,3.944,0,0,1,2.974-1.31,3.714,3.714,0,0,1,1.817.447,4.213,4.213,0,0,1,1.428,1.341V154.56Zm-4.193.839a3.053,3.053,0,0,0-1.616.45,3.242,3.242,0,0,0-1.179,1.265,3.6,3.6,0,0,0,0,3.447,3.308,3.308,0,0,0,1.186,1.281,2.994,2.994,0,0,0,1.6.458,3.166,3.166,0,0,0,1.632-.454,3.119,3.119,0,0,0,1.186-1.229,3.647,3.647,0,0,0,.416-1.747,3.481,3.481,0,0,0-.932-2.475A3.021,3.021,0,0,0,413.316,155.4Z" transform="translate(-247.015 -150.56)" fill="#fff"/><path d="M430.165,154.56h1.049v1.529a4.457,4.457,0,0,1,1.394-1.313,3.3,3.3,0,0,1,1.664-.436,2.8,2.8,0,0,1,1.622.486,2.864,2.864,0,0,1,1.045,1.309,7.207,7.207,0,0,1,.337,2.564v4.392h-1.049v-4.07a10.533,10.533,0,0,0-.116-1.968,2.184,2.184,0,0,0-.7-1.274,2.046,2.046,0,0,0-1.349-.427,2.519,2.519,0,0,0-1.706.659,3.1,3.1,0,0,0-.992,1.631,11.847,11.847,0,0,0-.15,2.321v3.129h-1.049Z" transform="translate(-257.311 -150.56)" fill="#fff"/><path d="M451.887,154.34a3.961,3.961,0,0,1,3.123,1.427,4.74,4.74,0,0,1-.064,6.207,4.177,4.177,0,0,1-6.126,0,4.728,4.728,0,0,1-.064-6.2A3.959,3.959,0,0,1,451.887,154.34Zm0,1.074a2.965,2.965,0,0,0-2.249,1.011,3.465,3.465,0,0,0-.94,2.447,3.594,3.594,0,0,0,.428,1.725,3.118,3.118,0,0,0,1.158,1.236,3.165,3.165,0,0,0,3.2,0,3.118,3.118,0,0,0,1.158-1.236,3.6,3.6,0,0,0,.429-1.725,3.459,3.459,0,0,0-.944-2.447A2.969,2.969,0,0,0,451.884,155.414Z" transform="translate(-265.815 -150.56)" fill="#fff"/></g></g></g></svg>