<svg xmlns="http://www.w3.org/2000/svg" width="162.279" height="32.282" viewBox="0 0 162.279 32.282"><g transform="translate(-85.786 -26.918)"><g transform="translate(85.786 26.918)"><path d="M95.625,54.717a6.055,6.055,0,0,1-1.316,1.412,6.411,6.411,0,0,1-1.435.829,5.665,5.665,0,0,1-1.419.382,10.272,10.272,0,0,1-1.284.088,4.457,4.457,0,0,1-1.817-.359A4.15,4.15,0,0,1,86.1,54.717a4.517,4.517,0,0,1-.311-1.658,4.436,4.436,0,0,1,.359-1.826,4.653,4.653,0,0,1,.964-1.411A6.106,6.106,0,0,1,88.5,48.785a8.745,8.745,0,0,1,1.627-.694,11.372,11.372,0,0,1,1.69-.39,10.667,10.667,0,0,1,1.578-.128c.106,0,.263.011.47.032s.422.04.646.056.438.034.646.055.364.032.47.032l.015-2.663a4.624,4.624,0,0,0-.175-1.379,2.026,2.026,0,0,0-.51-.869,1.915,1.915,0,0,0-.829-.454,4.286,4.286,0,0,0-1.132-.136,4.74,4.74,0,0,0-1.571.271,8.92,8.92,0,0,0-1.459.662A13.72,13.72,0,0,0,88.688,44l-1,.734h-.463l-.351-2.759q.558-.255,1.18-.518A11.149,11.149,0,0,1,89.382,41a13.406,13.406,0,0,1,1.515-.327,11.01,11.01,0,0,1,1.714-.127,9.028,9.028,0,0,1,2.113.255,5.486,5.486,0,0,1,1.906.853,4.367,4.367,0,0,1,1.363,1.61,5.478,5.478,0,0,1,.518,2.511l-.063,8.548a1.127,1.127,0,0,0,.1.478,1.011,1.011,0,0,0,.279.359,1.265,1.265,0,0,0,.446.231,1.943,1.943,0,0,0,.566.08,1.808,1.808,0,0,0,.3-.032q.183-.032.4-.088t.422-.128c.138-.047.266-.093.383-.135h.191v1a6.431,6.431,0,0,1-.6.406,8.868,8.868,0,0,1-.8.439,6.511,6.511,0,0,1-.893.351,2.933,2.933,0,0,1-.861.144,4.308,4.308,0,0,1-1.173-.144,1.984,1.984,0,0,1-.837-.463,1.9,1.9,0,0,1-.494-.837,4.35,4.35,0,0,1-.16-1.268Zm0-5.9A19.354,19.354,0,0,0,92.842,49a7.493,7.493,0,0,0-2.137.606,3.346,3.346,0,0,0-1.363,1.124,2.986,2.986,0,0,0-.479,1.722,3.441,3.441,0,0,0,.263,1.435,2.618,2.618,0,0,0,.678.925,2.537,2.537,0,0,0,.925.5,3.461,3.461,0,0,0,.989.151,6.062,6.062,0,0,0,1.028-.1,5.011,5.011,0,0,0,1.068-.311,5.3,5.3,0,0,0,.989-.542,3.11,3.11,0,0,0,.79-.789Z" transform="translate(-85.786 -32.481)" fill="#1b2437"/><path d="M115.55,44.153a.948.948,0,0,0-.207-.63,1.612,1.612,0,0,0-.654-.423l-1.626-.621v-.7l5.374-1.021V50.77a15.542,15.542,0,0,0,.111,1.954,3.818,3.818,0,0,0,.479,1.483,2.341,2.341,0,0,0,1.052.933,4.359,4.359,0,0,0,1.818.319,7.126,7.126,0,0,0,1.037-.08,5.266,5.266,0,0,0,1.06-.272,4.8,4.8,0,0,0,.989-.5,3.353,3.353,0,0,0,.822-.774V44.153a.8.8,0,0,0-.208-.59,1.765,1.765,0,0,0-.654-.367l-1.642-.622v-.718l5.39-1.1V54.088a.964.964,0,0,0,.2.638,1.472,1.472,0,0,0,.662.4l1.626.59v.7l-4.992,1.1h-.223V54.741h-.08a8.124,8.124,0,0,1-1.292,1.451,5.484,5.484,0,0,1-1.292.837,4.885,4.885,0,0,1-1.316.39,9.2,9.2,0,0,1-1.331.1,6.21,6.21,0,0,1-2.01-.319,4.178,4.178,0,0,1-1.619-.988,4.735,4.735,0,0,1-1.076-1.73,7.294,7.294,0,0,1-.4-2.559Z" transform="translate(-96.925 -32.569)" fill="#1b2437"/><path d="M146.4,56.216l1.818-.494a.978.978,0,0,0,.495-.3.8.8,0,0,0,.191-.55V44.065a.922.922,0,0,0-.215-.63,1.684,1.684,0,0,0-.662-.423l-1.626-.621v-.7l5.215-1.021v2.648h.08a8.7,8.7,0,0,1,1.3-1.428,5.535,5.535,0,0,1,1.3-.845,5.156,5.156,0,0,1,1.316-.4,8.645,8.645,0,0,1,1.331-.1,6.212,6.212,0,0,1,2.01.319,4.341,4.341,0,0,1,1.642,1,4.642,4.642,0,0,1,1.1,1.746,7.3,7.3,0,0,1,.4,2.552V54.8a.877.877,0,0,0,.208.622,1.049,1.049,0,0,0,.478.3l1.611.494v.893h-7.543v-.893l1.706-.494a1.089,1.089,0,0,0,.478-.311.894.894,0,0,0,.192-.614V47.3a13.647,13.647,0,0,0-.128-1.97,3.835,3.835,0,0,0-.51-1.483,2.488,2.488,0,0,0-1.077-.941,4.32,4.32,0,0,0-1.826-.327,6.4,6.4,0,0,0-1.028.088,5.676,5.676,0,0,0-1.052.279,4.6,4.6,0,0,0-.989.51,3.774,3.774,0,0,0-.837.781V54.877a.771.771,0,0,0,.2.558,1.052,1.052,0,0,0,.487.288l1.515.494v.893H146.4Z" transform="translate(-110.541 -32.481)" fill="#1b2437"/><path d="M181.212,39.688h-2.6V38.636q.654-.144,1.172-.263a2.707,2.707,0,0,0,.893-.367,1.712,1.712,0,0,0,.59-.677,3.142,3.142,0,0,0,.263-1.18l.128-2.121,2.44-.494v4.672h5.693l-.335,1.483H184.1V50.675a1.213,1.213,0,0,0,.327.861,2.693,2.693,0,0,0,.8.582,4.01,4.01,0,0,0,.989.335,4.733,4.733,0,0,0,.917.1,3.632,3.632,0,0,0,.59-.056c.224-.037.439-.079.646-.128a5.29,5.29,0,0,0,.582-.167,3.691,3.691,0,0,0,.4-.159h.319v1.021c-.149.1-.367.226-.654.39a9.2,9.2,0,0,1-1,.487,8.964,8.964,0,0,1-1.244.414,5.5,5.5,0,0,1-1.379.176,5.951,5.951,0,0,1-1.635-.215,4.24,4.24,0,0,1-1.323-.622,2.963,2.963,0,0,1-.893-1.013,2.871,2.871,0,0,1-.327-1.387Z" transform="translate(-123.695 -29.619)" fill="#0826b8"/><path d="M244.323,63.87l2.361-.511a.884.884,0,0,0,.495-.279.82.82,0,0,0,.19-.566v-7.8a5.755,5.755,0,0,1-2.837,2.3,5.015,5.015,0,0,1-1.3.3q-.613.048-1.044.048a6,6,0,0,1-2.662-.574,5.69,5.69,0,0,1-2-1.61,7.433,7.433,0,0,1-1.26-2.464,10.556,10.556,0,0,1-.439-3.118,11.048,11.048,0,0,1,.55-3.516,8.569,8.569,0,0,1,1.6-2.878,7.6,7.6,0,0,1,2.551-1.946,7.823,7.823,0,0,1,3.4-.717,16.41,16.41,0,0,1,3.166.311,12.033,12.033,0,0,1,3.149,1.108V62.531a.776.776,0,0,0,.2.55,1.021,1.021,0,0,0,.5.3l1.865.495v.893h-8.484Zm3.046-20.6a3.687,3.687,0,0,0-.741-.5,6.262,6.262,0,0,0-.917-.39,7.459,7.459,0,0,0-.933-.247,4.281,4.281,0,0,0-.789-.088,4.553,4.553,0,0,0-2.241.534,4.844,4.844,0,0,0-1.6,1.419,6.352,6.352,0,0,0-.957,2.049,9.272,9.272,0,0,0-.319,2.456,12.573,12.573,0,0,0,.279,2.726,6.414,6.414,0,0,0,.885,2.177,4.377,4.377,0,0,0,1.539,1.435,4.509,4.509,0,0,0,2.224.518,5.911,5.911,0,0,0,.853-.072,5.058,5.058,0,0,0,.989-.256,4.465,4.465,0,0,0,.964-.494,2.707,2.707,0,0,0,.765-.774Z" transform="translate(-147.058 -32.481)" fill="#0826b8"/><path d="M268.2,44.153a.948.948,0,0,0-.207-.63,1.609,1.609,0,0,0-.654-.423l-1.627-.621v-.7l5.374-1.021V50.77a15.426,15.426,0,0,0,.112,1.954,3.818,3.818,0,0,0,.478,1.483,2.339,2.339,0,0,0,1.053.933,4.356,4.356,0,0,0,1.817.319,7.12,7.12,0,0,0,1.036-.08,5.28,5.28,0,0,0,1.061-.272,4.813,4.813,0,0,0,.989-.5,3.348,3.348,0,0,0,.821-.774V44.153a.8.8,0,0,0-.207-.59,1.76,1.76,0,0,0-.654-.367l-1.642-.622v-.718l5.39-1.1V54.088a.967.967,0,0,0,.2.638,1.473,1.473,0,0,0,.661.4l1.627.59v.7l-4.991,1.1h-.224V54.741h-.08a8.146,8.146,0,0,1-1.291,1.451,5.5,5.5,0,0,1-1.292.837,4.885,4.885,0,0,1-1.316.39,9.2,9.2,0,0,1-1.332.1A6.2,6.2,0,0,1,271.3,57.2a4.169,4.169,0,0,1-1.619-.988,4.728,4.728,0,0,1-1.077-1.73,7.294,7.294,0,0,1-.4-2.559Z" transform="translate(-159.265 -32.569)" fill="#0826b8"/><path d="M313.226,53.457v1.4a10.764,10.764,0,0,1-2.759,1.794,10.117,10.117,0,0,1-1.77.606,8.458,8.458,0,0,1-4.944-.311,6.421,6.421,0,0,1-2.368-1.611,7.5,7.5,0,0,1-1.555-2.623,10.621,10.621,0,0,1-.558-3.6,10.138,10.138,0,0,1,.534-3.3,8.31,8.31,0,0,1,1.523-2.727,7.4,7.4,0,0,1,2.391-1.858,6.991,6.991,0,0,1,3.141-.693,6.558,6.558,0,0,1,2.719.534,6.186,6.186,0,0,1,2.009,1.411,5.9,5.9,0,0,1,1.244,2.033,6.856,6.856,0,0,1,.423,2.368c0,.1,0,.205-.008.327s-.011.247-.016.374a2.88,2.88,0,0,1-.04.375c-.021.122-.037.231-.047.327H302.287a8.583,8.583,0,0,0,1.41,5.31,4.886,4.886,0,0,0,4.122,1.833,6.594,6.594,0,0,0,1.691-.207,9.031,9.031,0,0,0,1.427-.5,7.747,7.747,0,0,0,1.148-.638q.5-.343.854-.63ZM310.2,47a10.526,10.526,0,0,0-.183-2.009,5.028,5.028,0,0,0-.606-1.642,3.17,3.17,0,0,0-1.084-1.1,3.123,3.123,0,0,0-1.635-.4,3.692,3.692,0,0,0-1.642.359,3.91,3.91,0,0,0-1.292,1.029,5.43,5.43,0,0,0-.909,1.619A8.912,8.912,0,0,0,302.367,47Z" transform="translate(-172.969 -32.481)" fill="#0826b8"/><g transform="translate(68.045 7.183)"><path d="M215.744,55.617a.746.746,0,0,1-.363-1.4,1.484,1.484,0,1,0-1.481-.025.746.746,0,1,1-.769,1.279,2.975,2.975,0,1,1,2.973.05A.747.747,0,0,1,215.744,55.617Z" transform="translate(-205.247 -43.505)" fill="#0826b8"/><path d="M212.576,56.831a5.994,5.994,0,1,1,5.57-3.769.746.746,0,0,1-1.385-.554,4.5,4.5,0,1,0-2.272,2.407.746.746,0,1,1,.635,1.351A5.953,5.953,0,0,1,212.576,56.831Z" transform="translate(-203.161 -41.418)" fill="#0826b8"/><path d="M210.217,57.89a9.408,9.408,0,0,1-9.416-9.416.746.746,0,1,1,1.492,0,7.924,7.924,0,1,0,7.924-7.924.746.746,0,0,1,0-1.492,9.416,9.416,0,0,1,0,18.831Z" transform="translate(-200.801 -39.059)" fill="#0826b8"/></g><g transform="translate(68.776)"><g transform="translate(8.208)"><path d="M216.5,31.492a.591.591,0,0,1-.592-.592V27.51a.592.592,0,0,1,1.183,0V30.9A.591.591,0,0,1,216.5,31.492Z" transform="translate(-215.91 -26.918)" fill="#0826b8"/></g><g transform="translate(14.277 3.391)"><path d="M226.76,35.987a.592.592,0,0,1-.418-1.01l2.154-2.155a.592.592,0,0,1,.837.837l-2.154,2.154A.59.59,0,0,1,226.76,35.987Z" transform="translate(-226.169 -32.649)" fill="#0826b8"/></g><g transform="translate(0 3.293)"><path d="M204.767,35.806a.59.59,0,0,1-.418-.173l-2.139-2.139a.592.592,0,1,1,.837-.837l2.139,2.139a.592.592,0,0,1-.418,1.01Z" transform="translate(-202.037 -32.484)" fill="#0826b8"/></g></g></g><path d="M330.123,65.984a1.133,1.133,0,0,1,.1-.479,1.368,1.368,0,0,1,.267-.391,1.176,1.176,0,0,1,.391-.267,1.262,1.262,0,0,1,.971,0,1.171,1.171,0,0,1,.4.267,1.3,1.3,0,0,1,.262.391,1.177,1.177,0,0,1,.1.479,1.211,1.211,0,0,1-.1.483,1.175,1.175,0,0,1-.262.386,1.339,1.339,0,0,1-.4.263,1.222,1.222,0,0,1-.971,0,1.347,1.347,0,0,1-.391-.263,1.234,1.234,0,0,1-.267-.386A1.165,1.165,0,0,1,330.123,65.984Z" transform="translate(-99.782 -15.45)" fill="#161615"/><path d="M345.416,59.814v.81a7.27,7.27,0,0,1-.671.552,5.751,5.751,0,0,1-.829.5,5.015,5.015,0,0,1-.971.363,4.223,4.223,0,0,1-1.09.138,3.959,3.959,0,0,1-1.721-.363,3.888,3.888,0,0,1-1.3-.993A4.481,4.481,0,0,1,338,59.344a5.553,5.553,0,0,1-.29-1.813,5.472,5.472,0,0,1,.166-1.352,5.305,5.305,0,0,1,.474-1.224,4.821,4.821,0,0,1,.75-1.035,4.9,4.9,0,0,1,.989-.8,4.773,4.773,0,0,1,1.2-.52,5.11,5.11,0,0,1,1.389-.183,4.724,4.724,0,0,1,.944.082,4.367,4.367,0,0,1,.7.2,3.88,3.88,0,0,1,.506.235c.141.079.267.144.378.193l-.2,1.62h-.295c-.227-.154-.453-.306-.676-.46a6.662,6.662,0,0,0-.7-.418,4.252,4.252,0,0,0-.773-.309,3.206,3.206,0,0,0-.9-.12,1.5,1.5,0,0,0-.359.046,2.276,2.276,0,0,0-.368.129,1.907,1.907,0,0,0-.335.193,1.846,1.846,0,0,0-.272.24,2.193,2.193,0,0,0-.295.414,3.544,3.544,0,0,0-.272.621,5.536,5.536,0,0,0-.207.838,7.009,7.009,0,0,0,.12,2.746,3.549,3.549,0,0,0,.6,1.252,2.614,2.614,0,0,0,.994.787,3.3,3.3,0,0,0,1.385.272,2.559,2.559,0,0,0,.8-.124,4.722,4.722,0,0,0,.718-.3,4.838,4.838,0,0,0,.607-.373c.181-.132.337-.253.465-.364Z" transform="translate(-102.882 -10.412)" fill="#161615"/><path d="M352.176,58.342l1.151-.285a.566.566,0,0,0,.285-.17.464.464,0,0,0,.111-.318V46.719a.554.554,0,0,0-.124-.368.816.816,0,0,0-.382-.231l-1.068-.4v-.4l3.23-.5V57.569a.461.461,0,0,0,.115.326.528.528,0,0,0,.28.162l1.068.285v.515h-4.666Z" transform="translate(-108.776 -7.312)" fill="#161615"/></g></svg>