<svg xmlns="http://www.w3.org/2000/svg" width="138.674" height="39.61" viewBox="0 0 138.674 39.61"><g transform="translate(-87 -115)"><g transform="translate(-0.602 46.291)"><g transform="translate(87.602 68.709)"><path d="M103.988,88.714v15.735h-2v-2.7a8.679,8.679,0,0,1-2.856,2.329,7.98,7.98,0,0,1-9.169-1.641A8.123,8.123,0,0,1,87.6,96.538a7.975,7.975,0,0,1,2.386-5.814,7.782,7.782,0,0,1,5.742-2.415,7.424,7.424,0,0,1,3.507.825,7.98,7.98,0,0,1,2.755,2.473V88.714ZM95.9,90.262a6.106,6.106,0,0,0-5.4,3.164,6.374,6.374,0,0,0,.008,6.356,6.205,6.205,0,0,0,2.289,2.362,5.981,5.981,0,0,0,3.084.845,6.319,6.319,0,0,0,3.149-.838,5.865,5.865,0,0,0,2.289-2.268,6.471,6.471,0,0,0,.8-3.222,6.263,6.263,0,0,0-1.8-4.565A5.958,5.958,0,0,0,95.9,90.262Z" transform="translate(-87.602 -81.199)" fill="#005fab"/><path d="M144.615,89.425h2.024v7.347a15.682,15.682,0,0,0,.29,3.7,4.128,4.128,0,0,0,1.658,2.285,5.034,5.034,0,0,0,2.919.839,4.928,4.928,0,0,0,2.875-.817,4.181,4.181,0,0,0,1.629-2.148,15.169,15.169,0,0,0,.3-3.861V89.425h2.068v7.723a12.208,12.208,0,0,1-.76,4.9,5.8,5.8,0,0,1-2.285,2.582,7.22,7.22,0,0,1-3.825.933,7.3,7.3,0,0,1-3.84-.933,5.755,5.755,0,0,1-2.3-2.6A12.72,12.72,0,0,1,144.615,97Z" transform="translate(-123.934 -81.91)" fill="#4a1971"/><path d="M187.97,88.714h2.024v2.82a8.464,8.464,0,0,1,2.69-2.422,6.611,6.611,0,0,1,3.211-.8,5.579,5.579,0,0,1,3.131.9,5.342,5.342,0,0,1,2.018,2.415,12.774,12.774,0,0,1,.651,4.729v8.1H199.67V96.943a18.5,18.5,0,0,0-.225-3.63,3.989,3.989,0,0,0-1.35-2.35,4.079,4.079,0,0,0-2.6-.788,5,5,0,0,0-3.291,1.215,5.691,5.691,0,0,0-1.916,3.008,20.907,20.907,0,0,0-.289,4.281v5.771H187.97Z" transform="translate(-151.562 -81.199)" fill="#0c2372"/><g transform="translate(63.893)"><g transform="translate(0 6.685)"><path d="M284.04,108.939a.694.694,0,0,1-.338-1.3,1.381,1.381,0,1,0-1.378-.024.694.694,0,1,1-.715,1.191,2.769,2.769,0,1,1,2.767.047A.689.689,0,0,1,284.04,108.939Z" transform="translate(-274.271 -97.667)" fill="#111e72"/><path d="M278.092,107.07a5.578,5.578,0,1,1,5.184-3.508.694.694,0,1,1-1.289-.516,4.192,4.192,0,1,0-2.115,2.24.694.694,0,1,1,.591,1.257A5.531,5.531,0,0,1,278.092,107.07Z" transform="translate(-269.329 -92.725)" fill="#111e72"/><path d="M272.5,104.663a8.754,8.754,0,0,1-8.763-8.763.694.694,0,1,1,1.389,0,7.374,7.374,0,1,0,7.374-7.374.694.694,0,0,1,0-1.389,8.763,8.763,0,0,1,0,17.526Z" transform="translate(-263.741 -87.137)" fill="#111e72"/></g><g transform="translate(0.68)"><g transform="translate(7.639)"><path d="M287.225,72.966a.55.55,0,0,1-.551-.551V69.259a.551.551,0,0,1,1.1,0v3.156A.55.55,0,0,1,287.225,72.966Z" transform="translate(-286.674 -68.709)" fill="#111e72"/></g><g transform="translate(13.287 3.156)"><path d="M302.8,80.515a.551.551,0,0,1-.389-.94l2-2a.551.551,0,0,1,.779.778l-2,2.005A.55.55,0,0,1,302.8,80.515Z" transform="translate(-302.245 -77.408)" fill="#111e72"/></g><g transform="translate(0 3.064)"><path d="M268.158,80.248a.55.55,0,0,1-.39-.161l-1.99-1.991a.55.55,0,0,1,.778-.778l1.991,1.99a.551.551,0,0,1-.389.94Z" transform="translate(-265.616 -77.156)" fill="#111e72"/></g></g></g><path d="M240.778,73.318H242.8v5.843h3.211v1.75H242.8V94.9h-2.025V80.911h-2.762v-1.75h2.762Z" transform="translate(-183.454 -71.646)" fill="#0090df"/><path d="M336.293,88.714v21.491h-2v-8.461a8.672,8.672,0,0,1-2.856,2.329,7.979,7.979,0,0,1-9.169-1.641,8.122,8.122,0,0,1-2.365-5.893,7.974,7.974,0,0,1,2.386-5.814,7.782,7.782,0,0,1,5.742-2.415,7.426,7.426,0,0,1,3.507.825,7.978,7.978,0,0,1,2.755,2.473V88.714ZM328.2,90.262a6.106,6.106,0,0,0-5.4,3.164,6.375,6.375,0,0,0,.007,6.356,6.209,6.209,0,0,0,2.29,2.362,5.98,5.98,0,0,0,3.084.845,6.318,6.318,0,0,0,3.149-.838,5.862,5.862,0,0,0,2.29-2.268,6.476,6.476,0,0,0,.8-3.222,6.262,6.262,0,0,0-1.8-4.565A5.957,5.957,0,0,0,328.2,90.262Z" transform="translate(-235.64 -81.199)" fill="#227c26"/><path d="M376.881,89.425h2.024v7.347a15.66,15.66,0,0,0,.29,3.7,4.126,4.126,0,0,0,1.658,2.285,5.033,5.033,0,0,0,2.918.839,4.927,4.927,0,0,0,2.875-.817,4.182,4.182,0,0,0,1.63-2.148,15.186,15.186,0,0,0,.3-3.861V89.425h2.068v7.723a12.215,12.215,0,0,1-.759,4.9,5.8,5.8,0,0,1-2.285,2.582,7.222,7.222,0,0,1-3.826.933,7.3,7.3,0,0,1-3.84-.933,5.752,5.752,0,0,1-2.3-2.6A12.714,12.714,0,0,1,376.881,97Z" transform="translate(-271.947 -81.91)" fill="#d8006b"/><path d="M439.137,99.228l1.706.9a9.3,9.3,0,0,1-1.94,2.661,7.7,7.7,0,0,1-2.475,1.541,8.647,8.647,0,0,1-3.112.528,7.52,7.52,0,0,1-6.022-2.524,8.513,8.513,0,0,1-2.171-5.706,8.412,8.412,0,0,1,1.838-5.337,7.515,7.515,0,0,1,6.239-2.979,7.762,7.762,0,0,1,6.427,3.052,8.519,8.519,0,0,1,1.737,5.38H427.206a6.407,6.407,0,0,0,1.752,4.495,5.588,5.588,0,0,0,4.185,1.753,6.722,6.722,0,0,0,2.338-.418,6.152,6.152,0,0,0,1.933-1.109A9.457,9.457,0,0,0,439.137,99.228Zm0-4.238a6.725,6.725,0,0,0-1.18-2.589,5.593,5.593,0,0,0-2.049-1.562,6.28,6.28,0,0,0-2.679-.593,5.769,5.769,0,0,0-3.982,1.489,6.731,6.731,0,0,0-1.839,3.254Z" transform="translate(-302.69 -81.199)" fill="#005fab"/></g><g transform="translate(89.666 97.099)"><path d="M98.558,154.5H99.3V159.3a5.927,5.927,0,0,1-.212,1.857,2.393,2.393,0,0,1-1.012,1.28,3.211,3.211,0,0,1-1.732.449,3.806,3.806,0,0,1-1.332-.219,2.64,2.64,0,0,1-.962-.589A3.528,3.528,0,0,1,93.366,161h.8a2.176,2.176,0,0,0,.848.887,2.632,2.632,0,0,0,1.289.288,2.569,2.569,0,0,0,1.281-.3,1.773,1.773,0,0,0,.745-.743,3.452,3.452,0,0,0,.223-1.445v-.31a2.838,2.838,0,0,1-1.024.851A2.949,2.949,0,0,1,93.674,159a3.152,3.152,0,0,1-.382-1.535,3.189,3.189,0,0,1,.4-1.561,2.994,2.994,0,0,1,1.1-1.144,2.84,2.84,0,0,1,1.482-.421,2.661,2.661,0,0,1,1.206.28,3.363,3.363,0,0,1,1.079.923Zm-2.188.593a2.286,2.286,0,0,0-2.018,1.2,2.5,2.5,0,0,0-.307,1.217,2.247,2.247,0,0,0,.636,1.641,2.421,2.421,0,0,0,3.292.006,2.329,2.329,0,0,0,.622-1.691,2.544,2.544,0,0,0-.286-1.217,2.138,2.138,0,0,0-.811-.846A2.179,2.179,0,0,0,96.37,155.089Z" transform="translate(-93.292 -151.668)" fill="#464545"/><path d="M118.592,158.526l.625.344a3.561,3.561,0,0,1-.711,1.02,2.8,2.8,0,0,1-.906.591,3.037,3.037,0,0,1-1.14.2,2.7,2.7,0,0,1-2.205-.967,3.423,3.423,0,0,1-.122-4.232,2.71,2.71,0,0,1,2.285-1.142,2.8,2.8,0,0,1,2.354,1.17,3.368,3.368,0,0,1,.636,2.062h-5.186a2.518,2.518,0,0,0,.642,1.723,2,2,0,0,0,1.533.672,2.361,2.361,0,0,0,.856-.16,2.227,2.227,0,0,0,.708-.425A3.6,3.6,0,0,0,118.592,158.526Zm0-1.624a2.63,2.63,0,0,0-.432-.992,2.063,2.063,0,0,0-.751-.6,2.212,2.212,0,0,0-.981-.227,2.059,2.059,0,0,0-1.458.571,2.611,2.611,0,0,0-.674,1.247Z" transform="translate(-106.144 -151.668)" fill="#464545"/><path d="M135.61,155.155l-.477.515a1.687,1.687,0,0,0-1.163-.6.857.857,0,0,0-.619.25.786.786,0,0,0-.258.582.883.883,0,0,0,.213.56,2.981,2.981,0,0,0,.892.638,3.35,3.35,0,0,1,1.126.865,1.626,1.626,0,0,1,.292.948,1.742,1.742,0,0,1-.5,1.259,1.663,1.663,0,0,1-1.246.515,2.14,2.14,0,0,1-1.7-.854l.466-.554a1.6,1.6,0,0,0,1.205.671,1.06,1.06,0,0,0,.76-.3.944.944,0,0,0,.313-.7.927.927,0,0,0-.207-.593,3.335,3.335,0,0,0-.934-.644,3.005,3.005,0,0,1-1.062-.831,1.616,1.616,0,0,1-.281-.937,1.561,1.561,0,0,1,.448-1.142,1.525,1.525,0,0,1,1.133-.455A2.307,2.307,0,0,1,135.61,155.155Z" transform="translate(-118.065 -151.668)" fill="#464545"/><path d="M145.284,148.594h.742v2.24H147.2v.671h-1.176v5.361h-.742V151.5h-1.012v-.671h1.012Z" transform="translate(-125.779 -148.006)" fill="#464545"/><path d="M155.058,147.921a.575.575,0,0,1,.432.189.658.658,0,0,1,0,.9.585.585,0,0,1-.86,0,.659.659,0,0,1,0-.9A.57.57,0,0,1,155.058,147.921Zm-.368,2.484h.742v6.032h-.742Z" transform="translate(-132.266 -147.577)" fill="#464545"/><path d="M163.638,149.646a2.8,2.8,0,0,1,2.208,1.009,3.35,3.35,0,0,1-.045,4.388,2.953,2.953,0,0,1-4.33,0,3.343,3.343,0,0,1-.045-4.382A2.8,2.8,0,0,1,163.638,149.646Zm0,.76a2.1,2.1,0,0,0-1.59.715,2.451,2.451,0,0,0-.665,1.73,2.54,2.54,0,0,0,.3,1.219,2.2,2.2,0,0,0,.818.873,2.239,2.239,0,0,0,2.265,0,2.2,2.2,0,0,0,.818-.873,2.536,2.536,0,0,0,.3-1.219,2.444,2.444,0,0,0-.667-1.73A2.1,2.1,0,0,0,163.635,150.406Zm.368-3.432h1.139l-1.563,1.707h-.731Z" transform="translate(-136.203 -146.974)" fill="#464545"/><path d="M180.986,154.5h.741v1.081a3.152,3.152,0,0,1,.986-.928,2.332,2.332,0,0,1,1.176-.308,1.977,1.977,0,0,1,1.147.344,2.028,2.028,0,0,1,.739.926,5.1,5.1,0,0,1,.238,1.813v3.1h-.741V157.65a7.4,7.4,0,0,0-.083-1.391,1.544,1.544,0,0,0-.494-.9,1.446,1.446,0,0,0-.953-.3,1.781,1.781,0,0,0-1.206.466,2.2,2.2,0,0,0-.7,1.153,8.374,8.374,0,0,0-.106,1.641v2.212h-.741Z" transform="translate(-149.176 -151.668)" fill="#464545"/><path d="M205.368,150.4h.752v6.941a1.847,1.847,0,0,1-.262,1.106.852.852,0,0,1-.718.346,2.318,2.318,0,0,1-.847-.188v-.7a1.147,1.147,0,0,0,.535.161.486.486,0,0,0,.45-.26,1.706,1.706,0,0,0,.09-.693Zm.366-2.484a.57.57,0,0,1,.432.189.664.664,0,0,1,0,.9.589.589,0,0,1-.863,0,.663.663,0,0,1,0-.9A.57.57,0,0,1,205.734,147.921Z" transform="translate(-164.028 -147.577)" fill="#464545"/><path d="M213.318,154.768h.741v2.816a6.284,6.284,0,0,0,.106,1.42,1.582,1.582,0,0,0,.608.876,1.786,1.786,0,0,0,1.069.321,1.749,1.749,0,0,0,1.053-.313,1.6,1.6,0,0,0,.6-.823,6.071,6.071,0,0,0,.111-1.48v-2.816h.758v2.96a4.879,4.879,0,0,1-.278,1.879,2.193,2.193,0,0,1-.837.99,2.552,2.552,0,0,1-1.4.357,2.579,2.579,0,0,1-1.406-.357,2.178,2.178,0,0,1-.843-1,5.088,5.088,0,0,1-.278-1.926Z" transform="translate(-169.779 -151.941)" fill="#464545"/><path d="M237.078,148.35v8.36h-.731v-1.037a3.212,3.212,0,0,1-1.046.892,2.726,2.726,0,0,1-1.269.3,2.755,2.755,0,0,1-2.09-.928,3.191,3.191,0,0,1-.866-2.259,3.13,3.13,0,0,1,.874-2.228,2.789,2.789,0,0,1,2.1-.926,2.624,2.624,0,0,1,1.284.316,2.975,2.975,0,0,1,1.009.948V148.35Zm-2.964,2.922a2.16,2.16,0,0,0-1.143.318,2.292,2.292,0,0,0-.834.894,2.543,2.543,0,0,0,0,2.437,2.333,2.333,0,0,0,.839.905,2.116,2.116,0,0,0,1.13.324,2.237,2.237,0,0,0,1.154-.321,2.2,2.2,0,0,0,.839-.869,2.574,2.574,0,0,0,.294-1.235,2.461,2.461,0,0,0-.659-1.75A2.134,2.134,0,0,0,234.114,151.272Z" transform="translate(-181.096 -147.851)" fill="#464545"/><path d="M251.894,147.921a.575.575,0,0,1,.432.189.658.658,0,0,1,0,.9.585.585,0,0,1-.86,0,.659.659,0,0,1,0-.9A.57.57,0,0,1,251.894,147.921Zm-.368,2.484h.742v6.032h-.742Z" transform="translate(-193.976 -147.577)" fill="#464545"/><path d="M263.357,155.748l-.588.383a2.426,2.426,0,0,0-2.08-1.059,2.4,2.4,0,0,0-2.445,2.431,2.535,2.535,0,0,0,.32,1.241,2.3,2.3,0,0,0,.879.9,2.463,2.463,0,0,0,1.251.321,2.493,2.493,0,0,0,2.075-1.059l.588.4a2.821,2.821,0,0,1-1.11,1.01,3.417,3.417,0,0,1-1.587.359,3.059,3.059,0,0,1-2.267-.909,3.027,3.027,0,0,1-.9-2.212,3.272,3.272,0,0,1,.421-1.627,3.037,3.037,0,0,1,1.158-1.172,3.259,3.259,0,0,1,1.648-.421,3.37,3.37,0,0,1,1.1.183,3.017,3.017,0,0,1,.9.477A2.558,2.558,0,0,1,263.357,155.748Z" transform="translate(-197.93 -151.668)" fill="#464545"/><path d="M277.23,147.921a.575.575,0,0,1,.432.189.658.658,0,0,1,0,.9.585.585,0,0,1-.86,0,.659.659,0,0,1,0-.9A.57.57,0,0,1,277.23,147.921Zm-.368,2.484h.742v6.032h-.742Z" transform="translate(-210.122 -147.577)" fill="#464545"/><path d="M288.861,154.5v6.032h-.731V159.49a3.212,3.212,0,0,1-1.046.892,2.824,2.824,0,0,1-3.359-.629,3.19,3.19,0,0,1-.866-2.259,3.13,3.13,0,0,1,.874-2.228,2.789,2.789,0,0,1,2.1-.926,2.626,2.626,0,0,1,1.285.316,2.978,2.978,0,0,1,1.009.948V154.5Zm-2.964.593a2.159,2.159,0,0,0-1.143.318,2.292,2.292,0,0,0-.834.894,2.544,2.544,0,0,0,0,2.437,2.339,2.339,0,0,0,.839.905,2.117,2.117,0,0,0,1.13.324,2.238,2.238,0,0,0,1.154-.321,2.2,2.2,0,0,0,.839-.869,2.578,2.578,0,0,0,.293-1.235,2.461,2.461,0,0,0-.659-1.75A2.135,2.135,0,0,0,285.9,155.089Z" transform="translate(-214.095 -151.668)" fill="#464545"/><path d="M303.7,148.35h.742v8.36H303.7Z" transform="translate(-227.375 -147.851)" fill="#464545"/><path d="M323.56,154.5v6.032h-.731V159.49a3.212,3.212,0,0,1-1.046.892,2.725,2.725,0,0,1-1.269.3,2.754,2.754,0,0,1-2.09-.928,3.19,3.19,0,0,1-.866-2.259,3.13,3.13,0,0,1,.874-2.228,2.789,2.789,0,0,1,2.1-.926,2.625,2.625,0,0,1,1.284.316,2.975,2.975,0,0,1,1.009.948V154.5Zm-2.964.593a2.16,2.16,0,0,0-1.143.318,2.292,2.292,0,0,0-.834.894,2.542,2.542,0,0,0,0,2.437,2.333,2.333,0,0,0,.839.905,2.116,2.116,0,0,0,1.13.324,2.237,2.237,0,0,0,1.154-.321,2.2,2.2,0,0,0,.839-.869,2.574,2.574,0,0,0,.294-1.235,2.461,2.461,0,0,0-.659-1.75A2.134,2.134,0,0,0,320.6,155.089Z" transform="translate(-236.207 -151.668)" fill="#464545"/><path d="M346.677,148.35h.742v8.36h-.742Z" transform="translate(-254.764 -147.851)" fill="#464545"/><path d="M358.257,154.5v6.032h-.731V159.49a3.211,3.211,0,0,1-1.046.892,2.824,2.824,0,0,1-3.359-.629,3.19,3.19,0,0,1-.866-2.259,3.131,3.131,0,0,1,.874-2.228,2.789,2.789,0,0,1,2.1-.926,2.626,2.626,0,0,1,1.285.316,2.978,2.978,0,0,1,1.009.948V154.5Zm-2.964.593a2.159,2.159,0,0,0-1.143.318,2.292,2.292,0,0,0-.834.894,2.544,2.544,0,0,0,0,2.437,2.339,2.339,0,0,0,.839.905,2.117,2.117,0,0,0,1.13.324,2.238,2.238,0,0,0,1.154-.321,2.2,2.2,0,0,0,.839-.869,2.578,2.578,0,0,0,.293-1.235,2.461,2.461,0,0,0-.659-1.75A2.135,2.135,0,0,0,355.293,155.089Z" transform="translate(-258.318 -151.668)" fill="#464545"/><path d="M381.667,154.5h.741v1.043a2.946,2.946,0,0,1,.8-.843,2.179,2.179,0,0,1,1.183-.355,1.891,1.891,0,0,1,.8.172,1.717,1.717,0,0,1,.616.457,2.5,2.5,0,0,1,.414.818,2.821,2.821,0,0,1,.925-1.078,2.116,2.116,0,0,1,1.194-.369,1.811,1.811,0,0,1,1.054.316,1.871,1.871,0,0,1,.679.882,4.9,4.9,0,0,1,.222,1.7v3.293h-.758v-3.293a4.5,4.5,0,0,0-.132-1.333,1.194,1.194,0,0,0-.452-.585,1.3,1.3,0,0,0-.763-.222,1.611,1.611,0,0,0-.985.333,1.9,1.9,0,0,0-.652.887,5.863,5.863,0,0,0-.206,1.852v2.362H385.6v-3.088a5.549,5.549,0,0,0-.13-1.483,1.237,1.237,0,0,0-.453-.626,1.265,1.265,0,0,0-.768-.236,1.608,1.608,0,0,0-.962.324,1.9,1.9,0,0,0-.662.873,4.912,4.912,0,0,0-.215,1.68v2.556h-.741Z" transform="translate(-277.061 -151.668)" fill="#464545"/><path d="M415.021,154.5v6.032h-.731V159.49a3.213,3.213,0,0,1-1.047.892,2.726,2.726,0,0,1-1.269.3,2.754,2.754,0,0,1-2.09-.928,3.19,3.19,0,0,1-.866-2.259,3.129,3.129,0,0,1,.874-2.228,2.788,2.788,0,0,1,2.1-.926,2.626,2.626,0,0,1,1.285.316,2.978,2.978,0,0,1,1.009.948V154.5Zm-2.964.593a2.158,2.158,0,0,0-1.143.318,2.292,2.292,0,0,0-.834.894,2.544,2.544,0,0,0,0,2.437,2.339,2.339,0,0,0,.839.905,2.117,2.117,0,0,0,1.13.324,2.238,2.238,0,0,0,1.154-.321,2.2,2.2,0,0,0,.839-.869,2.578,2.578,0,0,0,.294-1.235,2.461,2.461,0,0,0-.659-1.75A2.135,2.135,0,0,0,412.057,155.089Z" transform="translate(-294.491 -151.668)" fill="#464545"/><path d="M430.165,154.5h.742v1.081a3.151,3.151,0,0,1,.985-.928,2.335,2.335,0,0,1,1.176-.308,1.976,1.976,0,0,1,1.147.344,2.025,2.025,0,0,1,.739.926,5.1,5.1,0,0,1,.238,1.813v3.1h-.741V157.65a7.443,7.443,0,0,0-.082-1.391,1.544,1.544,0,0,0-.494-.9,1.447,1.447,0,0,0-.954-.3,1.781,1.781,0,0,0-1.206.466,2.193,2.193,0,0,0-.7,1.153,8.374,8.374,0,0,0-.106,1.641v2.212h-.742Z" transform="translate(-307.967 -151.668)" fill="#464545"/><path d="M450.64,154.34a2.8,2.8,0,0,1,2.208,1.009,3.351,3.351,0,0,1-.045,4.388,2.953,2.953,0,0,1-4.33,0,3.343,3.343,0,0,1-.045-4.382A2.8,2.8,0,0,1,450.64,154.34Zm0,.76a2.1,2.1,0,0,0-1.59.715,2.449,2.449,0,0,0-.665,1.73,2.541,2.541,0,0,0,.3,1.219,2.2,2.2,0,0,0,.819.873,2.238,2.238,0,0,0,2.265,0,2.2,2.2,0,0,0,.819-.873,2.545,2.545,0,0,0,.3-1.219,2.446,2.446,0,0,0-.667-1.73A2.1,2.1,0,0,0,450.637,155.1Z" transform="translate(-319.097 -151.668)" fill="#464545"/></g></g></g></svg>