<svg xmlns="http://www.w3.org/2000/svg" width="268.186" height="53.35" viewBox="0 0 268.186 53.35">
  <g id="Grupo_32" data-name="Grupo 32" transform="translate(-85.786 -26.918)" style="isolation: isolate">
    <g id="Grupo_30" data-name="Grupo 30" transform="translate(85.786 26.918)">
      <path id="Trazado_18" data-name="Trazado 18" d="M102.047,63.968A10.006,10.006,0,0,1,99.872,66.3,10.6,10.6,0,0,1,97.5,67.672a9.362,9.362,0,0,1-2.346.632,16.977,16.977,0,0,1-2.122.146,7.366,7.366,0,0,1-3-.593A6.858,6.858,0,0,1,86.3,63.968a7.465,7.465,0,0,1-.514-2.741,7.331,7.331,0,0,1,.593-3.017,7.689,7.689,0,0,1,1.594-2.332,10.09,10.09,0,0,1,2.293-1.713,14.452,14.452,0,0,1,2.689-1.147,18.793,18.793,0,0,1,2.793-.645,17.629,17.629,0,0,1,2.609-.211c.175,0,.435.018.777.053s.7.066,1.068.093.724.057,1.068.091.6.053.777.053l.025-4.4a7.642,7.642,0,0,0-.289-2.279,3.348,3.348,0,0,0-.843-1.436,3.165,3.165,0,0,0-1.371-.751A7.083,7.083,0,0,0,97.7,43.36a7.833,7.833,0,0,0-2.6.448A14.742,14.742,0,0,0,92.691,44.9a22.674,22.674,0,0,0-2.109,1.357l-1.659,1.212h-.765l-.58-4.559q.922-.421,1.95-.856a18.425,18.425,0,0,1,2.2-.764,22.155,22.155,0,0,1,2.5-.541,18.2,18.2,0,0,1,2.832-.21,14.92,14.92,0,0,1,3.492.421,9.067,9.067,0,0,1,3.149,1.41,7.217,7.217,0,0,1,2.253,2.661,9.054,9.054,0,0,1,.856,4.15l-.1,14.126a1.862,1.862,0,0,0,.157.79,1.67,1.67,0,0,0,.462.593,2.091,2.091,0,0,0,.737.381,3.212,3.212,0,0,0,.936.132,2.989,2.989,0,0,0,.488-.053q.3-.053.659-.145t.7-.211c.228-.078.439-.154.633-.223h.316v1.66a10.629,10.629,0,0,1-.988.671,14.654,14.654,0,0,1-1.33.725,10.763,10.763,0,0,1-1.476.58,4.847,4.847,0,0,1-1.423.238,7.119,7.119,0,0,1-1.938-.238,3.279,3.279,0,0,1-1.383-.765,3.135,3.135,0,0,1-.816-1.383,7.189,7.189,0,0,1-.264-2.1Zm0-9.75a31.986,31.986,0,0,0-4.6.3,12.383,12.383,0,0,0-3.532,1,5.529,5.529,0,0,0-2.253,1.858,4.935,4.935,0,0,0-.791,2.846,5.687,5.687,0,0,0,.435,2.372,4.326,4.326,0,0,0,1.12,1.529,4.193,4.193,0,0,0,1.528.829,5.72,5.72,0,0,0,1.634.25,10.018,10.018,0,0,0,1.7-.157,8.282,8.282,0,0,0,1.766-.514,8.755,8.755,0,0,0,1.634-.9,5.14,5.14,0,0,0,1.305-1.3Z" transform="translate(-85.786 -27.221)" fill="#fff"/>
      <path id="Trazado_19" data-name="Trazado 19" d="M117.173,46.37a1.566,1.566,0,0,0-.342-1.041,2.665,2.665,0,0,0-1.08-.7L113.063,43.6V42.443l8.881-1.687v16.55a25.687,25.687,0,0,0,.184,3.228,6.31,6.31,0,0,0,.791,2.451,3.869,3.869,0,0,0,1.739,1.542,7.2,7.2,0,0,0,3,.527,11.776,11.776,0,0,0,1.713-.132,8.7,8.7,0,0,0,1.752-.449,7.929,7.929,0,0,0,1.634-.829,5.542,5.542,0,0,0,1.358-1.279v-16a1.319,1.319,0,0,0-.343-.975,2.917,2.917,0,0,0-1.08-.607l-2.714-1.028V42.575l8.907-1.819V62.788a1.593,1.593,0,0,0,.329,1.054,2.432,2.432,0,0,0,1.094.659l2.688.975v1.16l-8.249,1.819h-.369V63.868h-.132a13.426,13.426,0,0,1-2.134,2.4,9.063,9.063,0,0,1-2.134,1.383,8.074,8.074,0,0,1-2.174.645,15.2,15.2,0,0,1-2.2.159,10.263,10.263,0,0,1-3.321-.528,6.9,6.9,0,0,1-2.675-1.633,7.825,7.825,0,0,1-1.778-2.86,12.055,12.055,0,0,1-.659-4.23Z" transform="translate(-86.394 -27.226)" fill="#fff"/>
      <path id="Trazado_20" data-name="Trazado 20" d="M146.4,66.446l3-.816a1.616,1.616,0,0,0,.817-.488,1.32,1.32,0,0,0,.316-.909V46.365a1.524,1.524,0,0,0-.356-1.041,2.783,2.783,0,0,0-1.094-.7L146.4,43.6V42.438l8.618-1.687v4.375h.132a14.38,14.38,0,0,1,2.147-2.359,9.149,9.149,0,0,1,2.148-1.4,8.521,8.521,0,0,1,2.174-.659,14.287,14.287,0,0,1,2.2-.17,10.267,10.267,0,0,1,3.321.527,7.174,7.174,0,0,1,2.714,1.646,7.671,7.671,0,0,1,1.818,2.885,12.06,12.06,0,0,1,.659,4.217V64.1a1.45,1.45,0,0,0,.343,1.028,1.734,1.734,0,0,0,.79.5l2.662.816v1.475H163.666V66.446l2.82-.816a1.8,1.8,0,0,0,.79-.514,1.478,1.478,0,0,0,.317-1.015V51.714a22.554,22.554,0,0,0-.211-3.255,6.337,6.337,0,0,0-.843-2.451,4.112,4.112,0,0,0-1.779-1.555,7.139,7.139,0,0,0-3.017-.54,10.58,10.58,0,0,0-1.7.145,9.38,9.38,0,0,0-1.739.461,7.6,7.6,0,0,0-1.635.843,6.237,6.237,0,0,0-1.383,1.291V64.232a1.275,1.275,0,0,0,.329.922,1.739,1.739,0,0,0,.8.475l2.5.816v1.475H146.4Z" transform="translate(-87.136 -27.221)" fill="#fff"/>
      <path id="Trazado_21" data-name="Trazado 21" d="M182.908,43.705h-4.3V41.966q1.081-.238,1.937-.435a4.475,4.475,0,0,0,1.476-.606A2.829,2.829,0,0,0,183,39.805a5.193,5.193,0,0,0,.434-1.951l.211-3.505,4.032-.816v7.721h9.408l-.553,2.451h-8.854V61.862a2,2,0,0,0,.541,1.424,4.451,4.451,0,0,0,1.317.962,6.627,6.627,0,0,0,1.634.553,7.822,7.822,0,0,0,1.515.171,6,6,0,0,0,.975-.092c.37-.062.725-.131,1.068-.211a8.743,8.743,0,0,0,.962-.277,6.1,6.1,0,0,0,.658-.263h.528v1.687c-.246.157-.606.373-1.08.645a15.205,15.205,0,0,1-1.647.8,14.816,14.816,0,0,1-2.056.684,9.087,9.087,0,0,1-2.279.29,9.835,9.835,0,0,1-2.7-.356,7.007,7.007,0,0,1-2.187-1.028,4.9,4.9,0,0,1-1.475-1.674,4.745,4.745,0,0,1-.541-2.293Z" transform="translate(-87.854 -27.065)" fill="#fff"/>
      <path id="Trazado_22" data-name="Trazado 22" d="M249.87,79.1l3.9-.844a1.46,1.46,0,0,0,.817-.461,1.355,1.355,0,0,0,.315-.935V63.968a9.511,9.511,0,0,1-4.689,3.808,8.288,8.288,0,0,1-2.149.488q-1.013.079-1.726.079a9.922,9.922,0,0,1-4.4-.949,9.4,9.4,0,0,1-3.308-2.661,12.284,12.284,0,0,1-2.083-4.071,17.446,17.446,0,0,1-.725-5.153,18.258,18.258,0,0,1,.909-5.811,14.161,14.161,0,0,1,2.636-4.757,12.552,12.552,0,0,1,4.216-3.216,12.928,12.928,0,0,1,5.626-1.185,27.119,27.119,0,0,1,5.233.513,19.886,19.886,0,0,1,5.2,1.831v34a1.282,1.282,0,0,0,.33.908,1.688,1.688,0,0,0,.83.488l3.083.817v1.475H249.87ZM254.9,45.047a6.093,6.093,0,0,0-1.224-.831,10.35,10.35,0,0,0-1.516-.645,12.327,12.327,0,0,0-1.542-.409,7.074,7.074,0,0,0-1.3-.145,7.524,7.524,0,0,0-3.7.883,8.005,8.005,0,0,0-2.649,2.346,10.5,10.5,0,0,0-1.581,3.386,15.323,15.323,0,0,0-.527,4.06,20.777,20.777,0,0,0,.461,4.505,10.6,10.6,0,0,0,1.463,3.6,7.233,7.233,0,0,0,2.544,2.372,7.451,7.451,0,0,0,3.675.856,9.768,9.768,0,0,0,1.41-.118,8.358,8.358,0,0,0,1.635-.422,7.38,7.38,0,0,0,1.594-.816,4.473,4.473,0,0,0,1.264-1.279Z" transform="translate(-89.128 -27.221)" fill="#fff"/>
      <path id="Trazado_23" data-name="Trazado 23" d="M269.826,46.37a1.566,1.566,0,0,0-.342-1.041,2.659,2.659,0,0,0-1.08-.7L265.715,43.6V42.443l8.882-1.687v16.55a25.492,25.492,0,0,0,.185,3.228,6.31,6.31,0,0,0,.79,2.451,3.866,3.866,0,0,0,1.74,1.542,7.2,7.2,0,0,0,3,.527,11.766,11.766,0,0,0,1.713-.132,8.725,8.725,0,0,0,1.753-.449,7.954,7.954,0,0,0,1.634-.829,5.534,5.534,0,0,0,1.356-1.279v-16a1.319,1.319,0,0,0-.342-.975,2.909,2.909,0,0,0-1.08-.607l-2.714-1.028V42.575l8.907-1.819V62.788a1.6,1.6,0,0,0,.329,1.054,2.434,2.434,0,0,0,1.093.659l2.689.975v1.16L287.4,68.454h-.37V63.868H286.9a13.463,13.463,0,0,1-2.133,2.4,9.086,9.086,0,0,1-2.135,1.383,8.073,8.073,0,0,1-2.174.645,15.2,15.2,0,0,1-2.2.159,10.247,10.247,0,0,1-3.319-.528,6.89,6.89,0,0,1-2.675-1.633,7.814,7.814,0,0,1-1.779-2.86,12.055,12.055,0,0,1-.659-4.23Z" transform="translate(-89.794 -27.226)" fill="#fff"/>
      <path id="Trazado_24" data-name="Trazado 24" d="M322.333,61.887v2.319a17.789,17.789,0,0,1-4.559,2.964,16.719,16.719,0,0,1-2.925,1,13.978,13.978,0,0,1-8.17-.513A10.611,10.611,0,0,1,302.764,65a12.4,12.4,0,0,1-2.569-4.334,17.551,17.551,0,0,1-.922-5.943,16.754,16.754,0,0,1,.883-5.456,13.733,13.733,0,0,1,2.518-4.506,12.23,12.23,0,0,1,3.952-3.07,11.552,11.552,0,0,1,5.192-1.146,10.838,10.838,0,0,1,4.494.883,10.223,10.223,0,0,1,3.319,2.332,9.747,9.747,0,0,1,2.056,3.359,11.331,11.331,0,0,1,.7,3.914c0,.158,0,.339-.014.541s-.019.409-.026.619a4.761,4.761,0,0,1-.066.619c-.035.2-.061.382-.078.541H304.255q0,5.745,2.331,8.776a8.074,8.074,0,0,0,6.813,3.03,10.9,10.9,0,0,0,2.794-.342,14.924,14.924,0,0,0,2.358-.83,12.8,12.8,0,0,0,1.9-1.054q.832-.568,1.411-1.041Zm-5.008-10.673a17.393,17.393,0,0,0-.3-3.32,8.308,8.308,0,0,0-1-2.714,5.238,5.238,0,0,0-1.792-1.82,5.161,5.161,0,0,0-2.7-.658,6.1,6.1,0,0,0-2.714.592,6.462,6.462,0,0,0-2.134,1.7,8.973,8.973,0,0,0-1.5,2.675,14.726,14.726,0,0,0-.791,3.544Z" transform="translate(-90.542 -27.221)" fill="#fff"/>
      <g id="Grupo_25" data-name="Grupo 25" transform="translate(112.453 11.871)">
        <path id="Trazado_25" data-name="Trazado 25" d="M218.391,59.318a1.233,1.233,0,0,1-.6-2.31,2.452,2.452,0,1,0-2.447-.042,1.233,1.233,0,1,1-1.27,2.114,4.917,4.917,0,1,1,4.914.083A1.235,1.235,0,0,1,218.391,59.318Z" transform="translate(-201.044 -39.301)" fill="#fff"/>
        <path id="Trazado_26" data-name="Trazado 26" d="M216.49,64.659a9.907,9.907,0,1,1,9.2-6.229,1.233,1.233,0,0,1-2.289-.916,7.442,7.442,0,1,0-3.755,3.978,1.233,1.233,0,1,1,1.049,2.232A9.838,9.838,0,0,1,216.49,64.659Z" transform="translate(-200.93 -39.188)" fill="#fff"/>
        <path id="Trazado_27" data-name="Trazado 27" d="M216.361,70.18a15.548,15.548,0,0,1-15.56-15.56,1.233,1.233,0,1,1,2.466,0,13.095,13.095,0,1,0,13.095-13.095,1.233,1.233,0,0,1,0-2.466,15.56,15.56,0,1,1,0,31.121Z" transform="translate(-200.801 -39.059)" fill="#fff"/>
      </g>
      <g id="Grupo_29" data-name="Grupo 29" transform="translate(113.661)">
        <g id="Grupo_26" data-name="Grupo 26" transform="translate(13.564)">
          <path id="Trazado_28" data-name="Trazado 28" d="M216.888,34.477a.977.977,0,0,1-.978-.978V27.9a.978.978,0,0,1,1.955,0v5.6A.977.977,0,0,1,216.888,34.477Z" transform="translate(-215.91 -26.918)" fill="#fff"/>
        </g>
        <g id="Grupo_27" data-name="Grupo 27" transform="translate(23.594 5.604)">
          <path id="Trazado_29" data-name="Trazado 29" d="M227.146,38.165a.978.978,0,0,1-.691-1.669l3.56-3.561a.978.978,0,0,1,1.383,1.383l-3.56,3.56A.975.975,0,0,1,227.146,38.165Z" transform="translate(-226.169 -32.65)" fill="#fff"/>
        </g>
        <g id="Grupo_28" data-name="Grupo 28" transform="translate(0 5.442)">
          <path id="Trazado_30" data-name="Trazado 30" d="M206.549,37.974a.975.975,0,0,1-.691-.286l-3.535-3.535a.978.978,0,0,1,1.383-1.382L207.24,36.3a.978.978,0,0,1-.691,1.669Z" transform="translate(-202.037 -32.484)" fill="#fff"/>
        </g>
      </g>
    </g>
    <path id="Trazado_31" data-name="Trazado 31" d="M330.123,66.789A1.872,1.872,0,0,1,330.29,66a2.261,2.261,0,0,1,.441-.646,1.943,1.943,0,0,1,.646-.441,2.023,2.023,0,0,1,.813-.16,2,2,0,0,1,.791.16,1.936,1.936,0,0,1,.654.441,2.141,2.141,0,0,1,.433.646,1.945,1.945,0,0,1,.159.791,2,2,0,0,1-.159.8,1.94,1.94,0,0,1-.433.638,2.214,2.214,0,0,1-.654.434,2.019,2.019,0,0,1-1.6,0,2.226,2.226,0,0,1-.646-.434,2.04,2.04,0,0,1-.441-.638A1.926,1.926,0,0,1,330.123,66.789Z" transform="translate(-5.443 -0.843)" fill="#fff"/>
    <path id="Trazado_32" data-name="Trazado 32" d="M350.443,64.642v1.339a12.009,12.009,0,0,1-1.109.912,9.5,9.5,0,0,1-1.37.829,8.288,8.288,0,0,1-1.6.6,6.979,6.979,0,0,1-1.8.228,6.543,6.543,0,0,1-2.844-.6,6.426,6.426,0,0,1-2.153-1.642,7.405,7.405,0,0,1-1.368-2.442,9.178,9.178,0,0,1-.479-3,9.045,9.045,0,0,1,.274-2.235,8.768,8.768,0,0,1,.783-2.023A7.967,7.967,0,0,1,340.01,54.9a8.106,8.106,0,0,1,1.635-1.324,7.888,7.888,0,0,1,1.986-.859,8.445,8.445,0,0,1,2.3-.3,7.807,7.807,0,0,1,1.559.136,7.216,7.216,0,0,1,1.149.328,6.411,6.411,0,0,1,.836.388c.234.131.441.238.624.319l-.334,2.677h-.487c-.375-.254-.748-.506-1.118-.761A11.011,11.011,0,0,0,347,54.81a7.027,7.027,0,0,0-1.278-.51,5.3,5.3,0,0,0-1.482-.2,2.481,2.481,0,0,0-.593.075,3.761,3.761,0,0,0-.608.213,3.151,3.151,0,0,0-.554.32,3.051,3.051,0,0,0-.449.4,3.623,3.623,0,0,0-.487.684,5.856,5.856,0,0,0-.449,1.027,9.146,9.146,0,0,0-.342,1.384,11.585,11.585,0,0,0,.2,4.539,5.865,5.865,0,0,0,1,2.069,4.319,4.319,0,0,0,1.643,1.3,5.45,5.45,0,0,0,2.289.449,4.23,4.23,0,0,0,1.316-.205,7.806,7.806,0,0,0,1.186-.494,8,8,0,0,0,1-.616c.3-.218.556-.418.768-.6Z" transform="translate(-5.612 -0.568)" fill="#fff"/>
    <path id="Trazado_33" data-name="Trazado 33" d="M352.194,67.165l1.9-.471a.936.936,0,0,0,.471-.281.767.767,0,0,0,.183-.525V47.957a.915.915,0,0,0-.205-.608,1.348,1.348,0,0,0-.632-.381l-1.765-.654v-.668l5.338-.822V65.888a.762.762,0,0,0,.191.539.872.872,0,0,0,.463.267l1.765.471v.852h-7.711Z" transform="translate(-5.934 -0.399)" fill="#fff"/>
  </g>
</svg>
