<svg xmlns="http://www.w3.org/2000/svg" width="35" height="35" viewBox="0 0 35 35">
  <g id="Grupo_54" data-name="Grupo 54" transform="translate(-1182 -4144)">
    <circle id="Elipse_4" data-name="Elipse 4" cx="17.5" cy="17.5" r="17.5" transform="translate(1182 4144)" fill="#fff"/>
    <path id="twitter-brands" d="M19.29,52.434c.014.191.014.382.014.573A12.451,12.451,0,0,1,6.767,65.544,12.452,12.452,0,0,1,0,63.566a9.115,9.115,0,0,0,1.064.055,8.825,8.825,0,0,0,5.471-1.883,4.414,4.414,0,0,1-4.12-3.056,5.557,5.557,0,0,0,.832.068,4.66,4.66,0,0,0,1.16-.15A4.407,4.407,0,0,1,.873,54.276v-.055a4.438,4.438,0,0,0,1.992.559A4.413,4.413,0,0,1,1.5,48.887,12.525,12.525,0,0,0,10.586,53.5a4.974,4.974,0,0,1-.109-1.009A4.411,4.411,0,0,1,18.1,49.474a8.676,8.676,0,0,0,2.8-1.064,4.395,4.395,0,0,1-1.937,2.428,8.834,8.834,0,0,0,2.537-.682,9.472,9.472,0,0,1-2.21,2.278Z" transform="translate(1189 4104.918)" fill="#1b2437"/>
  </g>
</svg>
