<svg xmlns="http://www.w3.org/2000/svg" width="35" height="35" viewBox="0 0 35 35">
  <g id="Grupo_55" data-name="Grupo 55" transform="translate(-1237 -4144)">
    <circle id="Elipse_5" data-name="Elipse 5" cx="17.5" cy="17.5" r="17.5" transform="translate(1237 4144)" fill="#fff"/>
    <path id="youtube-brands" d="M35.6,66.323a2.653,2.653,0,0,0-1.866-1.879C32.09,64,25.489,64,25.489,64s-6.6,0-8.248.444a2.653,2.653,0,0,0-1.866,1.879,29.867,29.867,0,0,0,0,10.229A2.613,2.613,0,0,0,17.241,78.4c1.646.444,8.248.444,8.248.444s6.6,0,8.248-.444A2.613,2.613,0,0,0,35.6,76.551a29.867,29.867,0,0,0,0-10.229ZM23.33,74.576V68.3l5.518,3.139Z" transform="translate(1229.067 4090)" fill="#1b2437"/>
  </g>
</svg>
